# xmcd CD database file
#
# Track frame offsets:
#	150
#	23532
#	45491
#	70562
#	90540
#	112127
#	139090
#	162977
#	187302
#	208210
#	228875
#	247650
#	266162
#	288695
#	309740
#
# Disc length: 4402 seconds
#
# Revision: 0
# Processed by: cddbd v1.5.1PL2 Copyright (c) Steve Scherf et al.
# Submitted via: CDex 1.51
#
DISCID=d711300f
DTITLE=Various Artist - Love II 〜memory of melody〜
DYEAR=2006
DGENRE=JPop
TTITLE0=悲しみは雪のように／浜田省吾
TTITLE1=No.1／槇原敬之
TTITLE2=永遠(とわ)に／ゴスペラーズ
TTITLE3=はじまりはいつも雨／ASKA
TTITLE4=TOMORROW／岡本真夜
TTITLE5=逢いたいから／古内東子
TTITLE6=Remember Me／TUBE
TTITLE7=シングルベッド／シャ乱Q
TTITLE8=このまま君だけを奪い去りたい／DEEN
TTITLE9=You're the Only …／小野正利
TTITLE10=ひだまりの詩／Le Couple
TTITLE11=はぐれそうな天使／岡村孝子
TTITLE12=言えないよ／郷ひろみ
TTITLE13=別れの街／鈴木雅之
TTITLE14=抱いて…／松田聖子
EXTD=YEAR: 2006
EXTT0=
EXTT1=
EXTT2=
EXTT3=
EXTT4=
EXTT5=
EXTT6=
EXTT7=
EXTT8=
EXTT9=
EXTT10=
EXTT11=
EXTT12=
EXTT13=
EXTT14=
PLAYORDER=
